<?xml version="1.0" encoding="UTF-8" standalone="yes"?>
<svg version="1.2" width="512" height="512" viewBox="0 0 512 512" baseProfile="tiny-ps" xmlns="http://www.w3.org/2000/svg">
  <title>bimi-svg-tiny-12-ps</title>
  <defs id="defs1"/>
  <g id="g1">
    <path d="M 165.51167,453.52656 C 116.01809,425.84224 75.179595,402.58586 74.759466,401.84572 74.339338,401.10557 64.742372,346.05 53.432876,279.5 42.12338,212.95 28.651185,133.76069 23.494664,103.52375 18.338144,73.286808 14.204859,48.468332 14.309586,48.371578 14.414314,48.274825 66.25,38.695785 129.5,27.084823 234.35191,7.8368925 245.47069,5.9742979 255.5,5.9775532 c 10.0127,0.00325 21.32177,1.8983822 126,21.1146248 63.25,11.61108 115.06817,21.177827 115.15148,21.259438 0.0833,0.08161 -8.55795,51.223384 -19.20282,113.648384 -10.64486,62.425 -24.16413,141.85 -30.04282,176.5 -5.87868,34.65 -11.18741,63.51217 -11.79718,64.13816 -0.60976,0.62598 -39.58366,22.61952 -86.60866,48.87452 -47.025,26.255 -87.3,48.77421 -89.5,50.04269 l -4,2.30632 z M 200,422.56739 c 0,-26.22325 0.13598,-28.47112 1.75,-28.92813 0.9625,-0.27254 13.43757,-2.62134 27.72238,-5.21956 l 25.97239,-4.72405 26.02761,4.73207 c 14.31519,2.60264 26.81512,4.95144 27.77762,5.21956 1.6142,0.44967 1.75,2.69381 1.75,28.92011 0,15.63793 0.20666,28.43261 0.45924,28.43261 0.25259,0 2.50259,-1.23422 5,-2.74272 L 321,445.51456 V 420.75728 C 321,407.14078 321.3163,396 321.7029,396 c 0.38659,0 15.5167,2.72014 33.62245,6.04476 l 32.91955,6.04476 15.60152,-8.79476 15.60151,-8.79476 1.18565,-7 c 0.6521,-3.85 13.17731,-77.36151 27.8338,-163.3589 14.65648,-85.9974 26.50966,-156.490628 26.34038,-156.651625 -0.16927,-0.160996 -49.5943,-9.343496 -109.8334,-20.405555 L 255.44872,22.971084 145.97436,43.077795 C 85.763461,54.136486 36.333412,63.347081 36.129803,63.545783 35.926195,63.744485 37.129478,71.915471 38.803765,81.70353 40.478051,91.491588 52.952783,164.75 66.525391,244.5 c 13.572608,79.75 25.194325,145.52158 25.826039,146.15906 0.631713,0.63748 7.74708,4.81849 15.81193,9.29114 l 14.66335,8.13209 32.77957,-6.04114 C 173.63503,398.71852 188.74902,396 189.19292,396 189.63681,396 190,407.21628 190,420.92508 v 24.92507 l 4.25,2.4749 c 2.3375,1.36119 4.5875,2.51991 5,2.57492 0.4125,0.055 0.75,-12.69465 0.75,-28.33258 z m -81,-24.86655 c 0,-2.2012 7.00054,-69.01911 7.35208,-70.17324 0.1629,-0.53481 3.97532,-1.70784 8.47205,-2.60672 L 143,323.28655 v 35.69424 35.69423 l -9.75,1.72412 c -5.3625,0.94826 -10.7625,1.97016 -12,2.27089 -1.58433,0.38502 -2.25,0.0983 -2.25,-0.96919 z M 378.75,396.71715 368,394.67803 v -35.69574 -35.69574 l 8.24425,1.648 c 5.51346,1.10212 8.32413,2.13118 8.4854,3.10672 0.32276,1.95237 7.27035,68.89374 7.27035,70.05116 0,1.12671 -0.13201,1.11301 -13.25,-1.37528 z M 153.00332,357.31739 153.00632,321.5 201.253,312.71346 c 26.53567,-4.8326 48.58418,-8.7701 48.99668,-8.75 0.88054,0.0429 1.0338,71.03654 0.15335,71.03654 -1.1141,0 -93.89272,17.07956 -95.65335,17.60876 -1.64393,0.49413 -1.7498,-1.64498 -1.74668,-35.29137 z M 320.5,386.02878 c -19.8,-3.71323 -41.5125,-7.76146 -48.25,-8.99606 L 260,374.78799 V 339.394 c 0,-19.4667 0.3375,-35.41044 0.75,-35.43054 0.4125,-0.0201 22.46101,3.9174 48.99668,8.75 l 48.24668,8.78654 0.003,35.75 c 0.002,19.6625 -0.33418,35.70053 -0.74668,35.64006 -0.4125,-0.0605 -16.95,-3.14804 -36.75,-6.86128 z m -189.5231,-104.22094 3.54082,-34.19216 25.99114,-4.76097 c 14.29513,-2.61853 26.77864,-4.78206 27.74114,-4.80784 1.6327,-0.0437 1.75,2.1938 1.75,33.38223 v 33.4291 l -5.25,1.0574 C 173.12434,308.25712 130.2256,316 128.87831,316 c -1.21538,0 -0.8853,-5.37799 2.09859,-34.19216 z M 350,310.42299 c -15.675,-2.94995 -28.6125,-5.37692 -28.75,-5.39327 -0.1375,-0.0163 -0.25,-15.24691 -0.25,-33.8457 v -33.81598 l 8.25,1.62447 c 4.5375,0.89346 16.93042,3.17315 27.53983,5.06598 17.01354,3.0354 19.339,3.67752 19.70647,5.44151 0.22914,1.1 1.81071,15.95 3.51459,33 1.70388,17.05 3.28434,31.5625 3.51215,32.25 0.63475,1.91563 -2.50593,1.51025 -33.52304,-4.32701 z m -149.7633,-41.14287 0.2633,-33.71988 27.46634,-5.03642 27.46634,-5.03641 27.53366,5.03581 27.53366,5.03582 0.2633,33.72048 C 310.90812,287.82578 310.73755,303 310.38426,303 c -0.35329,0 -12.85933,-2.25841 -27.79119,-5.0187 l -27.14883,-5.0187 -27.1459,5.0187 C 213.3681,300.74159 200.88716,303 200.56292,303 c -0.32424,0 -0.47104,-15.17395 -0.32622,-33.71988 z m -81.67764,-51.63071 c -9.31752,-11.16229 -17.08761,-20.73505 -17.26686,-21.27281 -0.18492,-0.55476 33.07912,-7.11229 76.89264,-15.15829 l 77.21856,-14.18057 77.31456,14.18233 c 42.52302,7.80028 77.18266,14.57808 77.02143,15.06176 -0.16123,0.48369 -7.93105,10.04325 -17.26627,21.24347 -10.83922,13.00469 -17.5152,20.22855 -18.47312,19.98915 -0.825,-0.20619 -27.84231,-5.18921 -60.03846,-11.07339 l -58.53847,-10.6985 -58.46153,10.69126 C 164.80769,232.31402 137.825,237.30946 137,237.53479 c -0.97478,0.26625 -7.43187,-6.69661 -18.44094,-19.88538 z M 100.23891,139.78796 100.5,98.575911 130.75,92.981117 161,87.386324 v 19.374226 c 0,17.98402 0.12557,19.33673 1.75,18.85173 C 164.40844,125.11713 213.47516,116 214.48155,116 c 0.26189,0 0.59818,-8.78579 0.74731,-19.523986 L 215.5,76.952028 255.25001,76.726014 295.00002,76.5 l -1e-5,19.190983 c -10e-6,11.020817 0.4038,19.440547 0.9485,19.777197 0.52168,0.32242 12.10918,2.61532 25.75,5.09534 13.64082,2.48002 25.58899,4.7481 26.55149,5.04019 1.62472,0.49305 1.75,-0.85587 1.75,-18.84316 V 87.386324 l 30.25,5.594793 30.25,5.594794 0.26109,41.212049 c 0.24572,38.7847 0.15737,41.21129 -1.5,41.19932 -0.9686,-0.007 -35.97413,-6.2684 -77.79007,-13.91423 l -76.02897,-13.90152 -75.97103,13.90052 c -41.78406,7.64528 -76.76351,13.90668 -77.73211,13.91423 -1.65738,0.0129 -1.74572,-2.4133 -1.5,-41.19832 z" id="path1" fill="#000000"/>
  </g>
</svg>