<?xml version="1.0" encoding="UTF-8" standalone="yes"?>
<svg version="1.2" xmlns="http://www.w3.org/2000/svg" viewBox="0 0 670 670" preserveAspectRatio="xMidYMid meet" baseProfile="tiny-ps">
<title>The Furnace</title>
<rect width="670" height="670" fill="#ffffff"/>
 <g fill="#e1471c">
  <path d="M 272.19 634.93 c -38.60 -8.90 -73.35 -25.19 -103.38 -48.42 l -7.52 -5.82 -9.95 -9.75 -9.95 -9.68 -1.18 -2.22 c -0.65 -1.18 -3.14 -5.37 -5.50 -9.23 -15.31 -24.86 -25.65 -55.29 -29.71 -87.35 l -1.05 -8.05 -0.39 -11.78 -0.39 -11.78 0.79 -9.16 0.79 -9.16 1.57 -9.23 c 3.99 -23.75 10.73 -43.31 24.01 -69.88 l 5.89 -11.84 6.87 -11.45 c 7.79 -12.96 19.76 -31.14 25.58 -38.93 l 3.93 -5.23 -0.65 -0.39 -0.65 -0.46 7.39 -8.38 c 7.85 -8.96 11.65 -13.09 41.22 -45.08 10.27 -11.19 22.51 -24.54 27.15 -29.77 50.25 -56.47 72.89 -97.36 79.30 -143.29 l 1.18 -8.18 0.98 -0.20 0.92 -0.20 6.80 5.63 c 9.62 7.92 20.87 17.99 33.76 30.16 l 11.12 10.53 13.48 14.33 c 25.78 27.42 48.48 53.65 73.15 84.60 l 10.67 13.35 -0.65 0.39 -0.59 0.39 0.59 12.43 0.59 12.43 -0.39 9.49 c -0.72 18.12 -2.75 35.53 -5.89 50.38 -1.96 9.23 -7.98 30.42 -10.34 36.31 -2.81 7.13 -6.54 15.70 -7.07 16.29 l -0.52 0.59 -6.08 -12.69 c -24.14 -49.79 -58.23 -101.81 -85.32 -130.07 l -6.94 -7.26 -1.24 0 -1.18 0 -0.39 0.59 c -0.20 0.39 -1.50 4.71 -2.94 9.68 -7 24.73 -15.05 42.92 -28.53 64.51 -9.42 15.05 -17.93 26.24 -40.50 53.46 -27.09 32.65 -39.58 51.10 -49.99 73.74 -8.96 19.69 -13.28 33.43 -16.88 53.78 l -1.64 9.55 -0.33 15.70 -0.33 15.70 1.05 9.09 1.05 9.09 1.96 9.55 c 5.10 25.39 13.41 48.75 26.50 74.66 9.81 19.30 20.41 36.51 32.52 52.54 l 5.82 7.66 -0.85 -0.07 c -0.46 0 -3.93 -0.72 -7.72 -1.64 z "/>
 </g>
 <g fill="#f36d1f">
  
  <path d="M 391.92 633.62 l 11.45 -11.71 6.80 -8.11 c 40.04 -47.96 64.91 -102.66 70.40 -154.94 l 0.98 -9.29 0 -12.96 0 -12.96 -0.98 -8.18 c -3.08 -26.30 -10.14 -51.04 -22.83 -79.82 l -3.60 -8.11 0.52 -0.72 c 0.52 -0.72 4.45 -9.75 7.07 -16.36 0.85 -2.16 3.14 -9.42 5.10 -16.10 l 3.53 -12.17 1.96 -9.42 1.96 -9.42 1.37 -10.93 c 0.72 -6.02 1.64 -15.18 1.90 -20.28 l 0.59 -9.36 -0.26 -13.74 c -0.13 -7.59 -0.46 -15.11 -0.65 -16.82 l -0.39 -3.14 0.92 0 0.92 0 5.30 7.07 c 14.39 19.11 34.81 49.14 44.82 65.89 19.76 33.11 33.24 62.88 41.81 92.26 l 3.27 11.12 2.22 11.12 c 2.75 13.67 4.12 23.55 4.78 34.68 l 0.52 8.51 -0.13 11.45 -0.20 11.45 -1.05 8.83 c -2.09 17.34 -6.08 34.09 -12.24 51.36 l -3.27 9.16 -6.08 12.43 -6.15 12.43 -4.45 7 c -11.97 18.91 -23.75 33.11 -38.60 46.72 l -7.39 6.74 -8.70 6.48 c -23.10 17.27 -46.59 28.33 -74.79 35.40 l -7.98 2.03 -10.01 1.57 c -5.56 0.92 -12.30 1.83 -14.98 2.09 l -4.91 0.39 11.45 -11.65 z "/>
  <path d="M 342.85 612.62 c 0 -1.05 10.27 -31.14 15.05 -44.03 5.50 -14.92 8.51 -25.13 10.47 -35.07 l 1.37 -7.13 0.39 -8.64 0.39 -8.64 -0.79 -6.08 -0.85 -6.08 -1.90 -5.69 -1.83 -5.69 -1.96 -3.47 c -1.11 -1.90 -2.81 -4.45 -3.86 -5.69 l -1.90 -2.22 -1.05 0.39 -1.05 0.39 -3.66 7.39 -3.73 7.39 -4.12 6.22 c -2.29 3.40 -8.51 11.65 -13.81 18.32 -11.06 13.87 -15.64 20.61 -19.30 28.53 l -2.62 5.56 -1.77 6.35 -1.70 6.35 0 12.10 0.07 12.10 1.37 7.52 c 0.72 4.12 1.24 7.59 1.11 7.72 -0.33 0.33 -5.30 -6.08 -9.49 -12.30 -5.69 -8.57 -8.96 -14.46 -12.50 -22.57 l -3.14 -7.46 -1.64 -5.76 c -0.92 -3.14 -2.09 -8.38 -2.68 -11.58 l -0.98 -5.82 0 -8.31 0 -8.31 0.98 -5.82 1.05 -5.82 1.96 -5.89 1.96 -5.89 3.93 -7.52 3.93 -7.52 5.69 -7.98 c 3.14 -4.45 9.55 -12.89 14.20 -18.84 20.22 -25.84 26.43 -38.80 30.10 -63.01 l 0.46 -2.81 0.92 -0.39 0.98 -0.39 0.79 0.98 c 0.46 0.52 5.30 6.41 10.86 13.02 20.81 24.73 31.86 41.55 38.60 58.56 l 2.62 6.61 1.64 6.48 c 0.92 3.60 2.16 9.49 2.75 13.02 l 1.11 6.54 0 11.12 0 11.12 -1.05 6.67 c -4.45 28.13 -16.36 52.28 -36.18 73.41 -5.17 5.50 -15.70 15.25 -19.30 17.80 l -1.90 1.31 0 -0.52 z "/>
  <path d="M 138.58 557.66 c -2.36 -2.62 -8.18 -10.14 -12.69 -16.55 -7.98 -11.19 -14.92 -24.21 -20.61 -38.41 l -3.27 -8.18 -2.29 -8.24 c -2.81 -10.40 -5.17 -23.03 -6.08 -32.85 l -0.72 -7.52 0 -8.83 0 -8.83 0.65 -7.20 c 2.55 -27.35 9.81 -51.56 23.55 -78.84 l 5.17 -10.14 5.63 -9.16 c 9.75 -15.83 17.86 -26.89 34.22 -46.59 l 8.83 -10.67 0.98 0 0.92 0 -1.57 2.16 c -8.31 10.86 -18.12 25.58 -28.27 42.59 l -6.80 11.19 -5.89 11.84 c -13.28 26.56 -20.02 46.13 -24.01 69.88 l -1.57 9.23 -0.79 9.16 -0.79 9.16 0.39 11.78 0.39 11.78 1.05 8.05 c 4.06 31.93 14.33 62.16 29.51 87.15 2.36 3.79 4.71 7.52 5.23 8.38 1.44 1.96 0.85 1.83 -1.18 -0.33 z "/>
 </g>
</svg>
